<svg xmlns="http://www.w3.org/2000/svg" width="192" height="192" viewBox="0 0 192 192" version="1.1"><path d="" stroke="none" fill="#080404" fill-rule="evenodd"/><path d="M 20.466 28.467 C 16.210 32.980, 15.592 37.651, 16.959 55 C 19.122 82.447, 19.980 88.246, 22.658 93.500 C 27.833 103.654, 35.821 109.073, 49.181 111.494 C 53.207 112.223, 55.698 112.860, 54.717 112.910 C 52.192 113.038, 43.869 117.398, 40.107 120.564 C 33.597 126.041, 31.938 134.641, 35.761 143.095 C 40.339 153.216, 57.323 166, 66.192 166 C 77.044 166, 86.247 156.839, 93.067 139.250 C 94.399 135.813, 95.719 133, 96 133 C 96.281 133, 97.601 135.813, 98.933 139.250 C 105.753 156.839, 114.956 166, 125.808 166 C 134.677 166, 151.661 153.216, 156.239 143.095 C 160.062 134.641, 158.403 126.041, 151.893 120.564 C 148.131 117.398, 139.808 113.038, 137.283 112.910 C 136.302 112.860, 138.793 112.223, 142.819 111.494 C 156.179 109.073, 164.167 103.654, 169.342 93.500 C 172.020 88.246, 172.878 82.447, 175.041 55 C 176.408 37.651, 175.790 32.980, 171.534 28.467 C 168.743 25.508, 167.604 25, 163.758 25 C 146.784 25, 121.920 47.089, 102 79.864 C 98.975 84.841, 96.275 88.913, 96 88.913 C 95.725 88.913, 93.025 84.841, 90 79.864 C 70.080 47.089, 45.216 25, 28.242 25 C 24.396 25, 23.257 25.508, 20.466 28.467" stroke="none" fill="#1785fb" fill-rule="evenodd"/></svg>