<svg xmlns="http://www.w3.org/2000/svg" width="192" height="192" viewBox="0 0 192 192" version="1.1"><path d="" stroke="none" fill="#080404" fill-rule="evenodd"/><path d="M 77.500 20.843 C 51.358 27.571, 35.064 47.349, 30.451 77.955 C 25.365 111.689, 34.525 143.927, 53.562 159.293 C 65.521 168.946, 78.452 173, 97.287 173 C 116.734 173, 130.488 168.091, 141.933 157.065 C 161.997 137.735, 160.158 107.993, 137.983 93.165 C 131.661 88.938, 131.469 88.680, 130.237 82.779 C 126.872 66.663, 119.151 58.383, 104.669 55.364 C 95.940 53.544, 87.060 54.754, 79.683 58.769 C 75.100 61.263, 69 67.071, 69 68.941 C 69 69.712, 78.402 77, 79.397 77 C 79.612 77, 81.221 75.661, 82.973 74.025 C 88.776 68.605, 99.381 67.380, 107.015 71.250 C 111.417 73.481, 114.277 77.130, 115.491 82.061 L 116.122 84.622 107.029 84.187 C 91.026 83.422, 79.499 87.094, 72.598 95.157 C 68.139 100.366, 66.627 105.615, 67.267 113.667 C 68.432 128.338, 82.973 138.437, 100.322 136.624 C 114.836 135.107, 124.721 126.344, 128.827 111.356 L 130.661 104.661 134.791 108.791 C 144.949 118.949, 143.866 134.766, 132.216 146.415 C 122.217 156.415, 106.517 160.605, 87.871 158.252 C 58.633 154.561, 43.534 133.361, 43.534 96 C 43.534 66.409, 52.862 47.155, 71.445 38.388 C 87.145 30.981, 109.207 31.444, 125.087 39.515 C 134.275 44.184, 142.812 54.519, 146.540 65.486 C 148.638 71.658, 148.980 71.789, 156.885 69.441 C 161.998 67.923, 162.116 67.804, 161.463 64.832 C 159.610 56.394, 151.460 42.595, 144.347 35.853 C 138.515 30.324, 130.022 25.337, 121.328 22.336 C 114.477 19.972, 111.690 19.598, 99 19.338 C 87.554 19.104, 83.026 19.421, 77.500 20.843 M 95.461 98.972 C 85.877 100.414, 81 104.495, 81 111.076 C 81 115.148, 84.193 119.363, 88.527 121.010 C 92.351 122.464, 102.685 122.216, 105.800 120.595 C 111.403 117.680, 114.306 112.987, 115.959 104.174 C 116.520 101.183, 116.420 99.742, 115.635 99.501 C 112.774 98.624, 100.002 98.290, 95.461 98.972" stroke="none" fill="#fc6c4c" fill-rule="evenodd"/></svg>