<svg xmlns="http://www.w3.org/2000/svg" width="192" height="192" viewBox="0 0 192 192" version="1.1"><path d="" stroke="none" fill="#080404" fill-rule="evenodd"/><path d="M 34.121 43.750 C 45.872 59.018, 50.464 65.014, 59.971 77.500 C 64.578 83.550, 70.564 91.320, 73.274 94.768 C 75.983 98.215, 77.986 101.593, 77.725 102.275 C 77.463 102.956, 70.556 111.139, 62.375 120.459 C 54.194 129.780, 43.370 142.152, 38.322 147.953 L 29.143 158.500 40.322 158.793 C 51.478 159.084, 51.505 159.079, 53.872 156.293 C 62.598 146.021, 87.099 118.163, 88.240 117.216 C 89.361 116.286, 90.968 117.837, 96.592 125.282 C 100.422 130.352, 107.769 140.012, 112.918 146.750 L 122.280 159 144.140 159 C 156.163 159, 166 158.692, 166 158.314 C 166 157.937, 165.160 156.700, 164.134 155.564 C 162.146 153.366, 113.894 89.365, 112.628 87.247 C 112.155 86.457, 114.087 83.500, 117.852 79.247 C 121.138 75.536, 130.684 64.625, 139.066 55 C 147.448 45.375, 155.216 36.488, 156.327 35.250 L 158.349 33 146.924 33.045 L 135.500 33.091 124 46.211 C 117.675 53.428, 110.103 62.182, 107.174 65.666 C 104.245 69.150, 101.545 71.978, 101.174 71.951 C 100.803 71.925, 93.975 63.163, 86 52.482 L 71.500 33.061 48.674 33.030 L 25.848 33 34.121 43.750 M 53.169 46.006 C 53.353 46.559, 70.547 69.284, 91.378 96.506 L 129.253 146 134.126 146 C 136.807 146, 139 145.711, 139 145.358 C 139 145.006, 134.187 138.368, 128.305 130.608 C 122.423 122.849, 106.588 101.875, 93.118 84 C 79.647 66.125, 67.472 50.038, 66.063 48.250 C 63.744 45.310, 62.991 45, 58.167 45 C 55.035 45, 52.972 45.415, 53.169 46.006" stroke="none" fill="#1DA1F2" fill-rule="evenodd"/></svg>